<?xml version="1.0" encoding="utf-8"?>
<!-- Generator: Adobe Illustrator 23.0.2, SVG Export Plug-In . SVG Version: 6.00 Build 0)  -->
<svg version="1.1" id="Layer_1" xmlns="http://www.w3.org/2000/svg" xmlns:xlink="http://www.w3.org/1999/xlink" x="0px" y="0px"
	 viewBox="0 0 708.8 221.1" style="enable-background:new 0 0 708.8 221.1;" xml:space="preserve">
<style type="text/css">
	.st0{enable-background:new    ;}
	.st1{fill:#EEEEEE;}
	.st2{fill:none;stroke:#FCB515;stroke-width:5;stroke-miterlimit:10;}
	.st3{fill:none;}
	.st4{fill:#1A3661;}
	.st5{fill:#3C7EA2;}
	.st6{fill:#1A3561;}
	.st7{fill:#FCB515;stroke:#1A3561;stroke-miterlimit:10;}
	.st8{fill:#FCB415;stroke:#1A3561;stroke-miterlimit:10;}
</style>
<title>white_udp_logo</title>
<g id="UNIVERSITY_OF_CALIFORNIA_BERKELEY">
	<g class="st0">
		<path class="st1" d="M238.4,199.4v10c0,1.1-0.3,2.1-0.8,3s-1.3,1.5-2.3,2c-1,0.5-2.2,0.7-3.6,0.7c-2.1,0-3.7-0.5-4.9-1.5
			s-1.7-2.4-1.7-4.2v-9.9h3.4v9.4c0,1.2,0.3,2.1,0.8,2.6c0.5,0.6,1.3,0.8,2.5,0.8c1.1,0,1.9-0.3,2.5-0.8s0.8-1.4,0.8-2.6v-9.4H238.4
			z"/>
		<path class="st1" d="M256.2,214.8h-4.4l-7.1-11.7h-0.1c0.1,2.1,0.2,3.5,0.2,4.4v7.3h-3.1v-15.4h4.4l7.1,11.5h0.1
			c-0.1-2-0.2-3.4-0.2-4.3v-7.3h3.1V214.8z"/>
		<path class="st1" d="M259.6,214.8v-15.4h3.5v15.4H259.6z"/>
		<path class="st1" d="M275.8,199.4h3.5l-5.5,15.4H270l-5.5-15.4h3.5l3.1,9.2c0.2,0.5,0.3,1.2,0.5,1.9c0.2,0.7,0.3,1.2,0.3,1.5
			c0.1-0.6,0.4-1.8,0.8-3.4L275.8,199.4z"/>
		<path class="st1" d="M290.1,214.8h-9.4v-15.4h9.4v2.7h-5.9v3.4h5.5v2.7h-5.5v4h5.9V214.8z"/>
		<path class="st1" d="M296.2,208.9v5.9h-3.5v-15.4h4.7c2.2,0,3.8,0.4,4.9,1.1c1.1,0.8,1.6,1.9,1.6,3.5c0,0.9-0.3,1.7-0.8,2.4
			s-1.3,1.3-2.2,1.7c2.4,3.5,4,5.7,4.8,6.7H302l-3.9-5.9H296.2z M296.2,206.2h1.1c1.1,0,1.9-0.2,2.4-0.5s0.8-0.9,0.8-1.6
			c0-0.7-0.3-1.3-0.8-1.6c-0.5-0.3-1.4-0.5-2.5-0.5h-1V206.2z"/>
		<path class="st1" d="M316.8,210.5c0,1.4-0.5,2.5-1.6,3.3c-1.1,0.8-2.5,1.2-4.4,1.2c-1.7,0-3.3-0.3-4.6-0.9v-3c1.1,0.5,2,0.8,2.8,1
			c0.8,0.2,1.5,0.3,2.1,0.3c0.8,0,1.3-0.1,1.7-0.4c0.4-0.3,0.6-0.7,0.6-1.2c0-0.3-0.1-0.6-0.3-0.8c-0.2-0.2-0.4-0.5-0.8-0.7
			c-0.3-0.2-1-0.6-2.1-1c-1-0.4-1.7-0.9-2.2-1.3c-0.5-0.4-0.9-0.9-1.2-1.4s-0.4-1.2-0.4-1.9c0-1.4,0.5-2.4,1.5-3.2
			c1-0.8,2.3-1.2,4-1.2c0.8,0,1.7,0.1,2.4,0.3c0.8,0.2,1.6,0.5,2.4,0.8l-1.1,2.5c-0.9-0.3-1.6-0.6-2.2-0.7c-0.6-0.1-1.1-0.2-1.7-0.2
			c-0.7,0-1.2,0.1-1.5,0.4c-0.3,0.3-0.5,0.7-0.5,1.1c0,0.3,0.1,0.5,0.2,0.8s0.4,0.4,0.7,0.6c0.3,0.2,1,0.6,2.2,1.1
			c1.5,0.7,2.6,1.4,3.1,2.1C316.5,208.7,316.8,209.5,316.8,210.5z"/>
		<path class="st1" d="M319.1,214.8v-15.4h3.5v15.4H319.1z"/>
		<path class="st1" d="M332.3,214.8h-3.5v-12.7h-4.4v-2.7h12.3v2.7h-4.4V214.8z"/>
		<path class="st1" d="M343.6,205.8l3.4-6.3h3.7l-5.4,9.4v6h-3.4v-5.9l-5.4-9.5h3.7L343.6,205.8z"/>
		<path class="st1" d="M372.1,207.1c0,2.6-0.7,4.5-2,5.9s-3.3,2.1-5.7,2.1s-4.4-0.7-5.7-2.1s-2-3.3-2-5.9s0.7-4.5,2-5.9s3.3-2,5.8-2
			s4.4,0.7,5.7,2C371.5,202.6,372.1,204.5,372.1,207.1z M360.2,207.1c0,1.7,0.3,3,1,3.9c0.7,0.9,1.7,1.3,3.1,1.3
			c2.8,0,4.1-1.7,4.1-5.2c0-3.5-1.4-5.2-4.1-5.2c-1.4,0-2.4,0.4-3.1,1.3C360.6,204.1,360.2,205.4,360.2,207.1z"/>
		<path class="st1" d="M378.2,214.8h-3.4v-15.4h9.3v2.7h-5.9v4h5.5v2.7h-5.5V214.8z"/>
		<path class="st1" d="M398.9,201.9c-1.3,0-2.3,0.5-3,1.4c-0.7,0.9-1.1,2.2-1.1,3.9c0,3.4,1.4,5.2,4.1,5.2c1.1,0,2.5-0.3,4.2-0.8
			v2.7c-1.3,0.5-2.8,0.8-4.5,0.8c-2.4,0-4.2-0.7-5.4-2c-1.3-1.4-1.9-3.3-1.9-5.9c0-1.6,0.3-3,0.9-4.2c0.6-1.2,1.5-2.1,2.7-2.8
			c1.2-0.6,2.5-1,4.1-1c1.6,0,3.2,0.4,4.8,1.1l-1.1,2.7c-0.6-0.3-1.2-0.5-1.8-0.7C400.1,202,399.4,201.9,398.9,201.9z"/>
		<path class="st1" d="M415.8,214.8l-1.2-3.7h-5.9l-1.2,3.7h-3.7l5.7-15.5h4.2l5.8,15.5H415.8z M413.8,208.4
			c-1.1-3.3-1.7-5.2-1.8-5.6c-0.1-0.4-0.2-0.8-0.3-1c-0.2,0.9-0.9,3.1-2.1,6.7H413.8z"/>
		<path class="st1" d="M420.9,214.8v-15.4h3.5v12.7h6.6v2.7H420.9z"/>
		<path class="st1" d="M433.1,214.8v-15.4h3.5v15.4H433.1z"/>
		<path class="st1" d="M443.4,214.8H440v-15.4h9.3v2.7h-5.9v4h5.5v2.7h-5.5V214.8z"/>
		<path class="st1" d="M466.6,207.1c0,2.6-0.7,4.5-2,5.9s-3.3,2.1-5.7,2.1s-4.4-0.7-5.7-2.1s-2-3.3-2-5.9s0.7-4.5,2-5.9s3.3-2,5.8-2
			s4.4,0.7,5.7,2C465.9,202.6,466.6,204.5,466.6,207.1z M454.7,207.1c0,1.7,0.3,3,1,3.9c0.7,0.9,1.7,1.3,3.1,1.3
			c2.8,0,4.1-1.7,4.1-5.2c0-3.5-1.4-5.2-4.1-5.2c-1.4,0-2.4,0.4-3.1,1.3C455.1,204.1,454.7,205.4,454.7,207.1z"/>
		<path class="st1" d="M472.8,208.9v5.9h-3.5v-15.4h4.7c2.2,0,3.8,0.4,4.9,1.1c1.1,0.8,1.6,1.9,1.6,3.5c0,0.9-0.3,1.7-0.8,2.4
			s-1.3,1.3-2.2,1.7c2.4,3.5,4,5.7,4.8,6.7h-3.8l-3.9-5.9H472.8z M472.8,206.2h1.1c1.1,0,1.9-0.2,2.4-0.5s0.8-0.9,0.8-1.6
			c0-0.7-0.3-1.3-0.8-1.6c-0.5-0.3-1.4-0.5-2.5-0.5h-1V206.2z"/>
		<path class="st1" d="M498.1,214.8h-4.4l-7.1-11.7h-0.1c0.1,2.1,0.2,3.5,0.2,4.4v7.3h-3.1v-15.4h4.4l7.1,11.5h0.1
			c-0.1-2-0.2-3.4-0.2-4.3v-7.3h3.1V214.8z"/>
		<path class="st1" d="M501.6,214.8v-15.4h3.5v15.4H501.6z"/>
		<path class="st1" d="M518.4,214.8l-1.2-3.7h-5.9l-1.2,3.7h-3.7l5.7-15.5h4.2l5.8,15.5H518.4z M516.4,208.4
			c-1.1-3.3-1.7-5.2-1.8-5.6c-0.1-0.4-0.2-0.8-0.3-1c-0.2,0.9-0.9,3.1-2.1,6.7H516.4z"/>
		<path class="st1" d="M528.8,199.4h5.1c2.3,0,4,0.3,5,0.9c1,0.6,1.6,1.6,1.6,3c0,0.9-0.2,1.7-0.7,2.3c-0.5,0.6-1.1,0.9-1.8,1.1v0.1
			c1,0.2,1.8,0.6,2.2,1.2c0.5,0.6,0.7,1.4,0.7,2.4c0,1.4-0.5,2.5-1.6,3.3s-2.5,1.2-4.4,1.2h-6.1V199.4z M532.3,205.5h2
			c0.9,0,1.6-0.1,2-0.4c0.4-0.3,0.6-0.7,0.6-1.4c0-0.6-0.2-1-0.7-1.3c-0.5-0.3-1.2-0.4-2.2-0.4h-1.8V205.5z M532.3,208.1v4h2.2
			c1,0,1.7-0.2,2.1-0.5c0.5-0.3,0.7-0.9,0.7-1.6c0-1.3-1-1.9-2.9-1.9H532.3z"/>
		<path class="st1" d="M552.8,214.8h-9.4v-15.4h9.4v2.7h-5.9v3.4h5.5v2.7h-5.5v4h5.9V214.8z"/>
		<path class="st1" d="M559,208.9v5.9h-3.5v-15.4h4.7c2.2,0,3.8,0.4,4.9,1.1c1.1,0.8,1.6,1.9,1.6,3.5c0,0.9-0.3,1.7-0.8,2.4
			s-1.3,1.3-2.2,1.7c2.4,3.5,4,5.7,4.8,6.7h-3.8l-3.9-5.9H559z M559,206.2h1.1c1.1,0,1.9-0.2,2.4-0.5s0.8-0.9,0.8-1.6
			c0-0.7-0.3-1.3-0.8-1.6c-0.5-0.3-1.4-0.5-2.5-0.5h-1V206.2z"/>
		<path class="st1" d="M583.1,214.8h-3.9l-4.3-6.5l-1.5,1v5.5H570v-15.4h3.5v7.1l1.4-1.8l4.4-5.2h3.8l-5.7,6.8L583.1,214.8z"/>
		<path class="st1" d="M593.8,214.8h-9.4v-15.4h9.4v2.7h-5.9v3.4h5.5v2.7h-5.5v4h5.9V214.8z"/>
		<path class="st1" d="M596.5,214.8v-15.4h3.5v12.7h6.6v2.7H596.5z"/>
		<path class="st1" d="M618.1,214.8h-9.4v-15.4h9.4v2.7h-5.9v3.4h5.5v2.7h-5.5v4h5.9V214.8z"/>
		<path class="st1" d="M625.9,205.8l3.4-6.3h3.7l-5.4,9.4v6h-3.4v-5.9l-5.4-9.5h3.7L625.9,205.8z"/>
	</g>
	<circle class="st1" cx="102.5" cy="103.1" r="102.5"/>
</g>
<g id="yellow_lines">
	<line class="st2" x1="218.4" y1="188.4" x2="706.1" y2="188.4"/>
	<line class="st2" x1="221.2" y1="4.6" x2="708.8" y2="4.6"/>
</g>
<g id="map_circle_2">
	<path class="st3" d="M202.2,102.1c0,55.1-44.6,99.7-99.7,99.7c-55.1,0-99.7-44.6-99.7-99.7c0-55.1,44.6-99.7,99.7-99.7
		c0,0,0.1,0,0.1,0C157.6,2.5,202.2,47.1,202.2,102.1C202.2,102.1,202.2,102.1,202.2,102.1z"/>
	<path class="st4" d="M53.3,121.4l24.8,81.4c-34.2-7.9-61.8-33.2-72.4-66.7"/>
	<path class="st5" d="M57.3,120.2l45.2-13.6l28.8,94.8l0.3,1c-15.8,4.3-32.4,4.9-48.5,1.7L57.3,120.2z"/>
	<path class="st6" d="M203.3,127.9l-82.4,25.4l14.7,48C169.1,190,194.6,162.3,203.3,127.9z"/>
	<path class="st5" d="M167.8,135.4l-29.2-96.7L174,27.9c25.9,25,37.4,61.5,30.3,96.9L167.8,135.4z"/>
	<path class="st5" d="M89.2,49.9l43.9-13.7L122.8,2C107-1.2,90.7-0.6,75.2,3.8L89.2,49.9z"/>
	<path class="st5" d="M137.2,35l-9.7-32.1c15.8,4.1,30.5,11.6,43,22L137.2,35z"/>
	<g id="Layer_9_copy">
		<path class="st4" d="M100.6,101.6l-30-97.3c-6.7,2.2-40.5,14.2-59.2,50.7C-6.9,90.5,2.2,124,4.3,131L100.6,101.6z"/>
	</g>
	<path class="st4" d="M90.2,53.7l44.2-13.6l29,95.7l-44,13.8L90.2,53.7z"/>
	<g id="URBAN_DISPLACEMENT_PROJECT">
		<g class="st0">
			<path class="st1" d="M266.8,16.9v31.4c0,3.6-0.8,6.7-2.4,9.4c-1.6,2.7-3.9,4.8-7,6.2c-3,1.4-6.6,2.2-10.8,2.2
				c-6.2,0-11.1-1.6-14.5-4.8c-3.5-3.2-5.2-7.6-5.2-13.1V16.9h10.3v29.7c0,3.7,0.8,6.5,2.3,8.2c1.5,1.8,4,2.6,7.5,2.6
				c3.4,0,5.8-0.9,7.3-2.6c1.5-1.8,2.3-4.5,2.3-8.3V16.9H266.8z"/>
			<path class="st1" d="M287,46.8v18.6h-10.3V16.9h14.1c6.6,0,11.5,1.2,14.6,3.6c3.2,2.4,4.7,6,4.7,10.9c0,2.9-0.8,5.4-2.4,7.6
				c-1.6,2.2-3.8,4-6.7,5.2c7.3,10.9,12.1,18,14.3,21.2H304l-11.6-18.6H287z M287,38.5h3.3c3.3,0,5.7-0.5,7.2-1.6
				c1.5-1.1,2.3-2.8,2.3-5.1c0-2.3-0.8-3.9-2.4-4.9c-1.6-1-4-1.5-7.4-1.5H287V38.5z"/>
			<path class="st1" d="M319.5,16.9h15.1c6.9,0,11.9,1,15,2.9c3.1,2,4.7,5.1,4.7,9.3c0,2.9-0.7,5.3-2,7.1c-1.4,1.9-3.2,3-5.4,3.4V40
				c3.1,0.7,5.3,2,6.7,3.9c1.4,1.9,2,4.4,2,7.5c0,4.4-1.6,7.9-4.8,10.4c-3.2,2.5-7.5,3.7-13,3.7h-18.2V16.9z M329.8,36.1h6
				c2.8,0,4.8-0.4,6.1-1.3c1.3-0.9,1.9-2.3,1.9-4.3c0-1.9-0.7-3.2-2-4c-1.4-0.8-3.5-1.2-6.5-1.2h-5.4V36.1z M329.8,44.3V57h6.7
				c2.8,0,4.9-0.5,6.3-1.6c1.4-1.1,2-2.7,2-5c0-4-2.9-6-8.6-6H329.8z"/>
			<path class="st1" d="M392.9,65.5l-3.5-11.6h-17.7l-3.5,11.6h-11.1l17.1-48.7h12.6L404,65.5H392.9z M386.9,45.3
				c-3.3-10.5-5.1-16.4-5.5-17.8c-0.4-1.4-0.7-2.5-0.9-3.3c-0.7,2.8-2.8,9.8-6.3,21H386.9z"/>
			<path class="st1" d="M451.1,65.5H438l-21.1-36.7h-0.3c0.4,6.5,0.6,11.1,0.6,13.9v22.8h-9.2V16.9h13l21.1,36.4h0.2
				c-0.3-6.3-0.5-10.8-0.5-13.4v-23h9.3V65.5z"/>
		</g>
		<g class="st0">
			<path class="st5" d="M267.6,95.7c0,8-2.3,14.1-6.8,18.4s-11.1,6.4-19.7,6.4h-13.7V71.9h15.2c7.9,0,14.1,2.1,18.5,6.3
				C265.4,82.4,267.6,88.2,267.6,95.7z M256.9,96c0-10.4-4.6-15.6-13.8-15.6h-5.5V112h4.4C251.9,112,256.9,106.6,256.9,96z"/>
			<path class="st5" d="M275.6,120.5V71.9h10.3v48.5H275.6z"/>
			<path class="st5" d="M324.7,107c0,4.4-1.6,7.8-4.7,10.4c-3.2,2.5-7.5,3.8-13.2,3.8c-5.2,0-9.8-1-13.7-2.9v-9.6
				c3.3,1.5,6,2.5,8.3,3.1c2.3,0.6,4.3,0.9,6.2,0.9c2.3,0,4-0.4,5.2-1.3c1.2-0.9,1.8-2.1,1.8-3.9c0-1-0.3-1.8-0.8-2.5
				c-0.5-0.7-1.3-1.5-2.3-2.1c-1-0.7-3.1-1.8-6.3-3.3c-3-1.4-5.2-2.7-6.7-4c-1.5-1.3-2.7-2.8-3.6-4.5c-0.9-1.7-1.3-3.7-1.3-6
				c0-4.3,1.5-7.7,4.4-10.1c2.9-2.5,6.9-3.7,12.1-3.7c2.5,0,4.9,0.3,7.2,0.9c2.3,0.6,4.7,1.4,7.2,2.5l-3.3,8
				c-2.6-1.1-4.7-1.8-6.4-2.2c-1.7-0.4-3.4-0.6-5-0.6c-1.9,0-3.4,0.5-4.5,1.4c-1,0.9-1.6,2.1-1.6,3.6c0,0.9,0.2,1.7,0.6,2.4
				c0.4,0.7,1.1,1.3,2,2c0.9,0.6,3.1,1.8,6.5,3.4c4.5,2.2,7.6,4.3,9.3,6.5C323.9,101.1,324.7,103.8,324.7,107z"/>
			<path class="st5" d="M365,87.1c0,5.2-1.6,9.2-4.9,12s-7.9,4.2-13.9,4.2h-4.4v17.3h-10.3V71.9H347c5.9,0,10.4,1.3,13.4,3.8
				C363.5,78.3,365,82,365,87.1z M341.8,94.8h3.4c3.2,0,5.5-0.6,7.1-1.9c1.6-1.3,2.4-3.1,2.4-5.5c0-2.4-0.7-4.2-2-5.3
				c-1.3-1.2-3.4-1.7-6.2-1.7h-4.7V94.8z"/>
			<path class="st5" d="M372.2,120.5V71.9h10.3v40h19.7v8.5H372.2z"/>
			<path class="st5" d="M438.3,120.5l-3.5-11.6H417l-3.5,11.6h-11.1l17.1-48.7h12.6l17.2,48.7H438.3z M432.3,100.3
				c-3.3-10.5-5.1-16.4-5.5-17.8c-0.4-1.4-0.7-2.5-0.9-3.3c-0.7,2.8-2.8,9.8-6.3,21H432.3z"/>
			<path class="st5" d="M474,79.8c-3.9,0-6.9,1.5-9,4.4s-3.2,7-3.2,12.2c0,10.8,4.1,16.2,12.2,16.2c3.4,0,7.5-0.9,12.4-2.6v8.6
				c-4,1.7-8.4,2.5-13.3,2.5c-7.1,0-12.5-2.1-16.2-6.4c-3.7-4.3-5.6-10.4-5.6-18.4c0-5,0.9-9.5,2.8-13.3c1.8-3.8,4.5-6.7,7.9-8.7
				s7.5-3,12.1-3c4.7,0,9.5,1.1,14.2,3.4l-3.3,8.4c-1.8-0.9-3.6-1.6-5.5-2.3C477.6,80.1,475.8,79.8,474,79.8z"/>
			<path class="st5" d="M522.7,120.5h-28V71.9h28v8.4H505V91h16.4v8.4H505V112h17.7V120.5z"/>
			<path class="st5" d="M551.3,120.5l-11.7-38.1h-0.3c0.4,7.7,0.6,12.9,0.6,15.5v22.6h-9.2V71.9h14l11.5,37.1h0.2l12.2-37.1h14v48.5
				h-9.6v-23c0-1.1,0-2.3,0-3.8s0.2-5.2,0.4-11.3h-0.3l-12.5,38H551.3z"/>
			<path class="st5" d="M620.8,120.5h-28V71.9h28v8.4h-17.7V91h16.4v8.4h-16.4V112h17.7V120.5z"/>
			<path class="st5" d="M672,120.5h-13.1l-21.1-36.7h-0.3c0.4,6.5,0.6,11.1,0.6,13.9v22.8h-9.2V71.9h13l21.1,36.4h0.2
				c-0.3-6.3-0.5-10.8-0.5-13.4v-23h9.3V120.5z"/>
			<path class="st5" d="M700.9,120.5h-10.3v-40h-13.2v-8.6h36.7v8.6h-13.2V120.5z"/>
		</g>
		<g class="st0">
			<path class="st1" d="M260.8,142.1c0,5.2-1.6,9.2-4.9,12s-7.9,4.2-13.9,4.2h-4.4v17.3h-10.3v-48.6h15.5c5.9,0,10.4,1.3,13.4,3.8
				C259.3,133.3,260.8,137,260.8,142.1z M237.6,149.8h3.4c3.2,0,5.5-0.6,7.1-1.9c1.6-1.3,2.4-3.1,2.4-5.5c0-2.4-0.7-4.2-2-5.3
				c-1.3-1.2-3.4-1.7-6.2-1.7h-4.7V149.8z"/>
			<path class="st1" d="M278.3,156.8v18.6H268v-48.6h14.1c6.6,0,11.5,1.2,14.6,3.6c3.2,2.4,4.7,6,4.7,10.9c0,2.9-0.8,5.4-2.4,7.6
				c-1.6,2.2-3.8,4-6.7,5.2c7.3,10.9,12.1,18,14.3,21.2h-11.4l-11.6-18.6H278.3z M278.3,148.5h3.3c3.3,0,5.7-0.5,7.2-1.6
				c1.5-1.1,2.3-2.8,2.3-5.1c0-2.3-0.8-3.9-2.4-4.9c-1.6-1-4-1.5-7.4-1.5h-3.1V148.5z"/>
			<path class="st1" d="M354.9,151.1c0,8-2,14.2-6,18.5c-4,4.3-9.7,6.5-17.1,6.5s-13.2-2.2-17.1-6.5c-4-4.3-6-10.5-6-18.6
				s2-14.3,6-18.5c4-4.3,9.7-6.4,17.2-6.4c7.5,0,13.2,2.1,17.1,6.4C352.9,136.9,354.9,143.1,354.9,151.1z M319.5,151.1
				c0,5.4,1,9.5,3.1,12.3c2.1,2.7,5.1,4.1,9.2,4.1c8.2,0,12.3-5.5,12.3-16.4c0-10.9-4.1-16.4-12.3-16.4c-4.1,0-7.2,1.4-9.3,4.1
				C320.5,141.6,319.5,145.7,319.5,151.1z"/>
		</g>
		<g class="st0">
			<path class="st1" d="M377.4,121.9h9.8v33.9c0,4.4-0.4,7.8-1.1,10.2c-1,3.1-2.7,5.6-5.2,7.5c-2.5,1.9-5.8,2.8-9.9,2.8
				c-4.8,0-8.5-1.5-11.1-4.4c-2.6-3-3.9-7.3-3.9-13l9.3-1.2c0.1,3.1,0.5,5.2,1.2,6.5c1.1,1.9,2.7,2.9,4.8,2.9c2.2,0,3.7-0.7,4.6-2.1
				c0.9-1.4,1.4-4.2,1.4-8.6V121.9z"/>
		</g>
		<g class="st0">
			<path class="st1" d="M420.9,175.5h-28v-48.6h28v8.4h-17.7V146h16.4v8.4h-16.4V167h17.7V175.5z"/>
			<path class="st1" d="M449.6,134.8c-3.9,0-6.9,1.5-9,4.4c-2.1,2.9-3.2,7-3.2,12.2c0,10.8,4.1,16.2,12.2,16.2
				c3.4,0,7.5-0.9,12.4-2.6v8.6c-4,1.7-8.4,2.5-13.3,2.5c-7.1,0-12.5-2.1-16.2-6.4c-3.7-4.3-5.6-10.4-5.6-18.4c0-5,0.9-9.5,2.8-13.3
				c1.8-3.8,4.5-6.7,7.9-8.7s7.5-3,12.1-3c4.7,0,9.5,1.1,14.2,3.4l-3.3,8.4c-1.8-0.9-3.6-1.6-5.5-2.3
				C453.2,135.1,451.4,134.8,449.6,134.8z"/>
			<path class="st1" d="M489,175.5h-10.3v-40h-13.2v-8.6h36.7v8.6H489V175.5z"/>
		</g>
	</g>
</g>
<g id="people">
	<path id="body_left" class="st7" d="M19.7,55.2c1.4-0.1,9.1,0,19.7,0.3l0.3,0.1c1.3,0.5,1.8,2.1,2,3c0.5,1.9,2.3,10.1,4.7,21.3
		c0.1,1-0.5,2-1.4,2.5c-0.2,0-0.3,0-0.5,0h-4.9c-0.2,0-0.3,0.1-0.4,0.3l-3,18.9c0,0.6-0.3,1.2-0.8,1.5c-0.3,0.2-0.7,0.2-1,0.1
		l-7.8-0.2c-0.3-0.1-0.7-0.2-0.9-0.4c-0.4-0.4-0.6-0.8-0.7-1.4l-3.1-18.6c0-0.2-0.2-0.3-0.4-0.3h-6.1c-1-0.2-1.6-1.2-1.4-2.2
		c0,0,0-0.1,0-0.1l3.8-22.5c-0.1-0.6,0.1-1.2,0.6-1.7C18.7,55.4,19.2,55.2,19.7,55.2z"/>
	<circle id="head_left" class="st7" cx="28.3" cy="46.7" r="6.4"/>
	<path id="body_middle" class="st8" d="M39.4,39.9l14.2-0.1c0.6,0,1.2,0.4,1.5,0.9c0.2,0.3,0.3,0.7,0.2,1
		c1.2,11.7,2.2,23.3,3.8,34.9c0.2,0.7,0.2,1.5-0.2,2.2c-0.3,0.4-1,0.3-1.4,0.4c-0.8,0.1-1.5,0.1-1.9,0.1c-0.3,0-0.6,0-0.9,0.2
		c-0.2,0.2-0.3,0.6-0.2,0.9l-2.8,23c-0.1,0.5-0.4,1-0.8,1.4c-0.3,0.2-0.5,0.4-0.8,0.5l-6.1,0.2c-0.8-0.3-1.4-1-1.5-1.9
		c-0.6-4.3-1.6-8.5-1.9-12.9c-0.1-0.8,0-1.1-0.1-1.7c-0.3-2.7-0.5-4.5,0-4.9c0.2-0.2,0.9-0.1,1.2-0.1c0.5,0,1,0,1.6,0
		c1,0.1,2.1,0,3.1-0.3c0.7-0.4,1.3-1.1,1.6-1.9c0.2-0.7,0.3-1.4,0.3-2.1c0.1-1.4-4.5-22.7-4.9-23.9c-0.1-0.2-0.2-0.3-0.3-0.5
		c-0.6-0.8-0.3-0.6-0.9-1.1c-0.4-0.2-0.8-0.4-1.2-0.6c-1.2,0-3,0.2-3.6-0.2c-0.3-0.2-0.7-0.7-0.8-1.8c-0.3-2.9,0.9-8.1,1.5-10.6
		C38.2,40.5,38.7,40.1,39.4,39.9z"/>
	<circle id="middle" class="st8" cx="46.5" cy="31.8" r="6.5"/>
	<path class="st8" d="M60,52.4c0.1-0.2,0.2-0.4,0.3-0.6c0.3-0.3,0.7-0.5,1.1-0.5c0.8-0.1,4.9-0.2,10.5,0c0.5,0,1.1,0.3,1.4,0.7
		c0.3,0.3,0.4,0.7,0.4,1.2c4.1,19,7.1,32.9,7.6,34.8c0.1,0.4,0.3,1.4-0.2,2c-0.4,0.3-1,0.5-1.5,0.3l-4.4-0.2l-2,12.3h-9.6l-3.1-12.3
		c-1.6,0.1-1.8,0.2-3.4,0.3c-0.3,0-1.2,0-1.3-0.1c-0.2-0.4-0.2-0.9-0.1-1.4c0.3-2.4,0.5-5.2,0.9-7.6c1.1,0,2.2-0.1,3.2-0.3
		c0.5-0.2,0.9-0.5,1.3-0.8c0.3-0.4,0.5-0.9,0.6-1.4c-0.6-7.4-1.7-13.2-2.5-20.5C59.5,56.3,59.5,54.3,60,52.4z"/>
	<circle id="head_right" class="st8" cx="67" cy="43.3" r="6.3"/>
</g>
</svg>
